PathFileType	4	(X/Y/Z)	C:/Users/opensim2020/Desktop/walking_exp_matlab/subject01_walking13_straight_01.trc																																																																																																																												
DataRate	CameraRate	NumFrames	NumMarkers	Units	OrigDataRate	OrigDataStartFrame	OrigNumFrames																																																																																																																								
100	100	8	42	mm	100	619	142																																																																																																																								
Frame#	Time	LFHD			RFHD			LBHD			RBHD			C7			T10			CLAV			STRN			RBAK			LSHO			LUPA			LELB			LFRM			LWRA			LWRB			LFIN			RSHO			RUPA			RELB			RFRM			RWRA			RWRB			RFIN			LASI			RASI			LPSI			RPSI			LTHI			LKNE			LTIB			LANK			LHEE			LTOE			RTHI			RKNE			RTIB			RANK			RHEE			RTOE			*39			*40			*41		
		X1	Y1	Z1	X2	Y2	Z2	X3	Y3	Z3	X4	Y4	Z4	X5	Y5	Z5	X6	Y6	Z6	X7	Y7	Z7	X8	Y8	Z8	X9	Y9	Z9	X10	Y10	Z10	X11	Y11	Z11	X12	Y12	Z12	X13	Y13	Z13	X14	Y14	Z14	X15	Y15	Z15	X16	Y16	Z16	X17	Y17	Z17	X18	Y18	Z18	X19	Y19	Z19	X20	Y20	Z20	X21	Y21	Z21	X22	Y22	Z22	X23	Y23	Z23	X24	Y24	Z24	X25	Y25	Z25	X26	Y26	Z26	X27	Y27	Z27	X28	Y28	Z28	X29	Y29	Z29	X30	Y30	Z30	X31	Y31	Z31	X32	Y32	Z32	X33	Y33	Z33	X34	Y34	Z34	X35	Y35	Z35	X36	Y36	Z36	X37	Y37	Z37	X38	Y38	Z38	X39	Y39	Z39	X40	Y40	Z40	X41	Y41	Z41	X42	Y42	Z42
																																																																																																																															
18	0.17	-474.88733	1643.86145	-1098.62756	-459.07367	1651.79468	-986.50439	-584.22034	1584.81067	-1087.34692	-570.09467	1591.30505	-967.81714	-606.2486	1406.07813	-1044.36694	-659.47614	1115.97729	-1032.72156	-463.15509	1331.67236	-1042.97827	-430.42026	1173.99023	-1054.73413	-671.54297	1213.18616	-970.17047	-527.14209	1368.27917	-1200.99731	-540.5849	1200.57654	-1305.87329	-514.2193	1053.9928	-1345.02722	-404.57623	1006.21857	-1359.77844	-271.89258	991.51166	-1327.06177	-298.69943	946.92035	-1355.23718	-216.76454	944.83038	-1365.20825	-528.84882	1359.6864	-891.38293	-625.71979	1173.03589	-795.92395	-645.25671	1052.2345	-786.09113	-647.64307	933.90063	-750.34027	-598.06348	800.35504	-763.25659	-641.91077	813.2005	-726.64886	-624.57214	729.49365	-722.94843	-514.71204	896.28827	-1155.995	-483.75092	908.10156	-940.44714	-689.26685	922.18677	-1071.56934	-668.08087	921.29108	-927.8501	-646.56555	586.60364	-1203.81458	-703.23962	460.78607	-1195.75037	-826.82068	315.23636	-1198.92493	-940.29779	123.40214	-1154.26831	-984.8208	115.20234	-1097.10083	-827.83795	28.88467	-1176.16882	-431.88452	596.96027	-876.72632	-372.42197	453.73779	-912.80139	-386.45578	277.60788	-903.57239	-363.50281	73.9388	-951.46881	-409.1593	32.95972	-1001.72766	-222.71565	40.53038	-955.44678	-475.64096	1682.7865	-1009.15039	1972.76721	1024.00354	-3102.9082	2012.60107	1021.99683	-3140.3374
19	0.18	-462.55463	1645.3916	-1096.62988	-446.53345	1653.08984	-984.62732	-571.875	1586.35266	-1085.27759	-557.58154	1592.66174	-965.77838	-593.99567	1407.10522	-1042.71289	-645.53046	1116.63269	-1031.71936	-450.1243	1333.28308	-1041.55237	-416.58127	1175.80945	-1052.97009	-657.98883	1213.67261	-968.71429	-514.39105	1369.47424	-1199.42395	-528.24097	1201.75159	-1304.15344	-503.20767	1055.20313	-1343.71619	-393.74295	1007.07471	-1358.17151	-260.931	991.98773	-1325.64624	-288.04034	947.47693	-1354.02051	-206.04741	945.08368	-1363.62012	-516.11487	1360.83289	-889.66144	-612.25439	1173.30933	-794.86108	-631.25171	1052.42358	-785.73541	-633.4353	933.98828	-750.48108	-583.71063	800.56287	-763.68719	-627.46631	813.00928	-727.01361	-610.42236	729.56482	-723.50916	-499.62515	896.55725	-1154.50647	-469.28922	909.50439	-939.46265	-674.2356	923.28009	-1071.38354	-653.36609	923.23596	-927.18463	-631.48083	586.62073	-1203.9967	-687.27258	460.77304	-1196.27429	-814.86194	318.46509	-1199.8623	-933.71472	130.16812	-1155.51343	-977.85791	124.43191	-1098.22913	-826.81	29.11149	-1176.04065	-417.52591	598.74377	-877.69916	-360.95462	453.27344	-913.3114	-378.18765	277.24908	-903.17065	-359.39935	73.87138	-951.1618	-406.41	33.87136	-1000.54102	-218.65584	38.60041	-955.39117	-463.17032	1684.15833	-1007.0061	1973.03992	1024.10657	-3102.27661	2012.44446	1021.92102	-3140.60205
20	0.19	-450.04132	1647.34192	-1094.552	-433.85077	1654.83069	-982.55011	-559.56561	1588.46667	-1083.19897	-544.96753	1594.44067	-963.64777	-581.29413	1408.33105	-1040.8446	-631.42932	1117.69751	-1030.80347	-437.24274	1335.23438	-1039.43396	-402.66125	1178.0365	-1051.1615	-644.27264	1214.49963	-967.10559	-501.57178	1370.84814	-1197.51917	-516.14935	1203.15552	-1302.37756	-492.60837	1056.69043	-1342.22815	-383.36478	1007.86591	-1356.7937	-250.77612	991.84229	-1324.31079	-277.9473	947.69012	-1352.82434	-195.85417	944.71295	-1362.14807	-503.30249	1362.41382	-887.79272	-598.43341	1174.07642	-793.6225	-616.8291	1053.02319	-785.27716	-618.77478	934.49005	-750.53131	-568.75299	801.1828	-764.17285	-612.25397	813.57416	-727.69568	-595.30695	730.29663	-724.13629	-484.39783	897.30768	-1152.8042	-454.76852	911.07678	-938.35309	-659.3053	924.74908	-1071.06042	-639.33551	925.65967	-926.492	-614.88879	586.61914	-1203.8894	-669.86847	460.51593	-1197.19849	-801.4483	321.966	-1200.8988	-925.64258	137.38089	-1156.71509	-969.02692	134.3093	-1099.10388	-825.72113	29.59863	-1175.80261	-405.07593	599.4007	-876.52191	-350.7778	452.93701	-912.91565	-368.96582	277.15268	-901.29169	-357.66522	73.3315	-951.341	-406.25067	34.71862	-1000.39575	-216.99428	37.52555	-955.19147	-450.51199	1685.88123	-1004.86707	1973.17468	1023.74365	-3101.88794	2012.5354	1021.95709	-3140.55078
21	0.2	-437.40643	1649.55603	-1092.46838	-421.31787	1656.89661	-980.63702	-546.9433	1590.92029	-1081.0448	-532.23505	1596.72302	-961.52936	-568.4621	1409.93323	-1039.03906	-617.18579	1118.96631	-1029.76917	-424.27261	1337.65869	-1038.04785	-388.74918	1180.67517	-1049.34607	-630.51953	1215.70374	-965.32306	-488.77527	1372.56824	-1195.80774	-504.31445	1204.7738	-1300.43799	-482.28979	1058.08154	-1340.29211	-373.39752	1008.57361	-1355.5282	-240.97943	991.28534	-1322.90234	-268.49698	947.42474	-1351.51111	-186.27338	943.70734	-1360.67615	-490.42068	1364.46594	-886.04645	-584.06433	1175.46252	-792.20447	-602.05939	1054.01111	-784.84796	-603.61768	935.37354	-750.54553	-553.2157	802.27423	-764.80353	-596.9375	814.36975	-728.26862	-579.20514	731.14282	-724.84753	-469.13574	898.40747	-1150.83398	-440.30338	912.74243	-937.01794	-644.34857	926.50073	-1070.51941	-624.41638	928.1463	-925.57343	-596.99597	586.638	-1203.98608	-650.77924	460.24026	-1198.401	-786.64966	325.85678	-1202.11023	-916.07214	145.07938	-1157.93506	-958.2041	144.55937	-1099.78064	-824.39832	29.88652	-1175.71863	-396.32852	598.64838	-874.87231	-341.30362	452.71753	-912.67749	-359.80939	277.29288	-900.30853	-357.03732	73.26803	-951.54901	-405.82587	34.74868	-1000.11523	-216.29108	36.88475	-955.72455	-437.66821	1688.10168	-1002.6062	1973.19556	1023.73273	-3101.92651	2012.45154	1021.97595	-3140.56494
22	0.21	-424.62924	1651.98865	-1090.37085	-408.07736	1658.88818	-978.41132	-534.33325	1593.79492	-1078.92957	-519.44672	1599.25916	-959.44623	-555.8988	1411.90552	-1037.36523	-603.17072	1120.5719	-1028.43079	-411.4111	1340.29871	-1036.37671	-374.93387	1183.57385	-1047.50305	-616.86694	1217.26624	-963.3399	-476.08371	1374.53186	-1194.07764	-492.72855	1206.61121	-1298.52905	-472.29047	1059.63757	-1338.03882	-364.03592	1009.07611	-1353.38733	-231.39885	990.33813	-1321.45313	-259.651	946.7583	-1350.12903	-177.33508	941.92896	-1358.82605	-477.83438	1366.61572	-884.36542	-569.83868	1176.94116	-790.73267	-587.15381	1055.45007	-784.22186	-588.14661	936.61694	-750.49762	-537.15424	803.74188	-765.3996	-581.26147	815.53351	-728.73224	-562.76385	732.43036	-725.61658	-453.9986	900.00861	-1148.63	-426.08215	914.57196	-935.4306	-629.60931	928.45111	-1069.92151	-609.93994	931.24707	-924.53961	-577.96667	586.66852	-1204.26514	-630.27124	459.9534	-1199.85706	-770.3302	329.9032	-1203.5061	-904.67645	152.98326	-1159.40588	-945.22955	155.06227	-1100.56873	-822.59363	30.17318	-1175.34204	-388.74567	598.13275	-873.63641	-332.90179	452.77893	-912.35327	-353.64487	277.37747	-900.54132	-355.82535	73.35774	-951.69366	-405.75272	35.07443	-1000.06738	-215.15082	36.07011	-956.05139	-424.62335	1690.43066	-1000.45264	1973.0752	1023.81964	-3101.97705	2012.54187	1021.96747	-3140.57349
23	0.22	-411.75772	1654.58569	-1088.38928	-395.026	1661.15356	-976.39838	-521.79071	1596.89331	-1076.94202	-506.61661	1601.97351	-957.42993	-543.10675	1413.75256	-1035.65027	-589.07794	1122.26538	-1027.09607	-398.58856	1343.18494	-1034.8927	-361.09341	1186.64844	-1045.80298	-603.19617	1218.97351	-961.23853	-463.66577	1376.90564	-1192.76733	-481.40756	1208.55151	-1296.57446	-462.50769	1061.4458	-1335.65637	-354.91275	1009.43579	-1351.76135	-222.42288	988.87207	-1320.00256	-251.36768	945.66565	-1348.57092	-169.01221	939.5578	-1357.34119	-464.57965	1369.12793	-882.88043	-555.02557	1179.05811	-788.99701	-571.88708	1057.15894	-783.56213	-572.21698	938.12885	-750.38556	-520.54547	805.57281	-765.98572	-564.5141	816.99976	-729.15503	-545.54785	733.88641	-726.47327	-438.96539	901.99841	-1146.18237	-412.15921	916.34027	-933.53021	-614.98285	930.75916	-1069.12146	-595.63739	934.52905	-923.43604	-557.97675	586.67346	-1204.54187	-608.59247	459.68088	-1200.98987	-752.6535	334.06091	-1204.84912	-891.58771	160.5681	-1161.39465	-930.52252	165.61775	-1101.5592	-820.18933	30.3608	-1174.33875	-381.15396	597.79663	-873.03156	-325.67749	452.53278	-911.91913	-349.79114	277.32748	-900.33685	-355.49429	73.41525	-951.74365	-405.93942	35.05753	-1000.1214	-214.88943	35.91431	-956.2912	-411.42279	1692.73938	-998.43359	1973.13062	1023.73743	-3101.92065	2012.55786	1021.95074	-3140.61426
24	0.23	-398.80045	1657.22314	-1086.33325	-382.10403	1663.59436	-974.56683	-509.1217	1600.18701	-1074.9895	-493.81506	1604.82117	-955.44629	-530.73621	1415.92566	-1034.09412	-575.11829	1124.17188	-1025.50635	-385.84787	1346.06506	-1033.28687	-347.4079	1189.69922	-1044.24854	-589.5603	1220.93091	-958.9704	-451.32169	1379.10669	-1190.953	-470.26462	1210.52502	-1294.69299	-452.98114	1063.24548	-1333.21716	-346.3396	1009.5285	-1349.42456	-213.93506	986.8775	-1318.52039	-243.63385	944.13983	-1346.88538	-161.32013	936.52783	-1355.81311	-451.26758	1372.05896	-881.43042	-540.48682	1181.14685	-787.14215	-556.48383	1059.0365	-782.69434	-555.99866	939.91125	-750.08783	-503.4075	807.69843	-766.5719	-547.26196	818.69507	-729.42889	-527.70691	735.41711	-727.54449	-424.21863	904.33276	-1143.65479	-398.47095	918.1554	-931.60883	-601.23566	933.41626	-1068.23413	-581.80817	937.7818	-922.36243	-537.24835	586.57172	-1204.76709	-586.25433	459.32632	-1201.79761	-733.51648	338.12833	-1205.64148	-877.46161	168.43044	-1163.66028	-914.83673	176.51715	-1103.06897	-817.37634	31.99448	-1174.11133	-373.47513	597.95227	-872.53503	-319.16556	451.9346	-910.89453	-348.0159	277.19879	-899.74524	-355.57553	73.46402	-951.81268	-405.90741	35.08015	-1000.20416	-214.89676	35.70208	-956.18848	-398.07434	1695.4314	-996.17474	1973.11182	1023.74445	-3102.11206	2012.54688	1021.94592	-3140.64111
25	0.24	-385.72278	1659.80005	-1084.47656	-368.61261	1665.61755	-972.53833	-496.32843	1603.41528	-1073.08105	-480.95316	1607.69727	-953.5769	-518.06915	1417.74194	-1032.47278	-561.43347	1126.15271	-1023.69873	-373.1528	1348.96912	-1032.28125	-333.89432	1192.72778	-1042.85999	-575.95758	1222.96655	-956.80084	-439.19446	1381.52271	-1189.62231	-459.37341	1212.49023	-1292.82593	-443.68552	1065.03955	-1330.6875	-337.94189	1009.43799	-1347.30347	-205.71391	984.56195	-1317.02173	-236.34132	942.28235	-1345.13794	-154.17268	932.88043	-1354.37952	-438.09952	1375.01526	-880.0451	-525.32404	1183.64722	-785.23517	-541.02728	1061.02539	-781.73633	-539.36841	941.76788	-749.63092	-485.80972	809.9928	-767.16077	-529.22009	820.63782	-729.71979	-509.38248	737.19543	-728.43628	-409.83563	906.81207	-1141.29773	-385.02164	919.97992	-929.7547	-587.25623	935.98578	-1067.36084	-568.24512	940.80316	-921.48926	-516.10028	586.30212	-1204.62097	-563.23956	458.73975	-1202.38281	-713.23853	342.20514	-1206.10229	-862.63947	176.92989	-1165.37891	-898.90961	188.1757	-1104.60596	-811.80353	36.4253	-1174.30762	-364.84525	599.01178	-871.1192	-313.92731	451.08847	-909.05194	-347.13644	276.64441	-898.82538	-355.79623	73.34414	-951.79834	-405.93802	34.81742	-1000.22729	-215.04234	35.50663	-955.823	-384.67401	1697.63013	-994.19629	1973.02979	1023.75623	-3102.01831	2012.52844	1021.98828	-3140.57422
